<svg width="558" height="150" viewBox="0 0 558 150" fill="none" xmlns="http://www.w3.org/2000/svg">
<path fill-rule="evenodd" clip-rule="evenodd" d="M110.065 97.8357L109.883 97.7601C98.2573 92.9447 89.0171 97.1992 83.146 101.859C86.0212 94.5221 86.7285 87.9207 86.8558 86.4448C87.7489 84.6472 88.9721 83.5542 90.5916 83.1062C94.9217 81.905 100.558 85.6484 100.613 85.6857L102.13 86.7041L111.057 64.6554L83.1584 37.5338L61.0149 40.0549C60.5296 40.1305 60.0511 40.2205 59.5725 40.3133C55.2883 34.7734 49.8699 30.2203 43.6045 27.59L66.9358 22.0539L115.846 33.6564L116.321 63.347C116.321 75.6922 114.155 87.3129 110.065 97.8348V97.8357ZM67.0851 66.4845C67.8872 75.0107 66.9291 95.5941 40.9503 103.098L27.6077 79.5505C28.6558 68.8659 33.6205 59.3969 41.0479 52.7026L41.3016 53.0395C47.6924 61.5648 47.7049 70.6012 41.3341 78.4842L40.4057 79.6309L42.7105 81.4781L43.638 80.3296C50.9352 71.2999 50.9467 60.9819 43.6705 51.2774L43.3125 50.8008C47.7697 47.336 52.9187 44.8684 58.4115 43.5648C63.0929 50.0484 66.2897 58.0368 67.0851 66.4845V66.4845ZM90.1073 48.6673C86.9755 51.2171 83.077 54.391 83.9289 68.35C84.4697 77.2514 84.0438 84.3132 83.948 85.68L83.9442 85.6905L83.9289 85.971C83.9232 86.0638 83.3479 95.2553 78.9326 104.307C73.2376 115.989 64.0768 121.959 51.6981 122.062L42.4396 105.727C61.5184 99.9414 71.8191 85.2397 70.0283 66.2117C69.2894 58.3631 66.2629 50.0475 61.4887 42.9637L82.0979 40.6187L90.269 48.562C90.2145 48.5955 90.1589 48.6261 90.1073 48.6673V48.6673ZM96.1449 64.3644C97.4982 64.3914 98.8084 63.888 99.7953 62.9617C100.782 62.0353 101.368 60.7597 101.426 59.4074L107.575 65.3847L100.715 82.3271C98.3894 81.0819 93.8669 79.1437 89.8096 80.2683C88.8328 80.5351 87.9136 80.9796 87.098 81.5796C87.1908 78.3416 87.2129 73.6305 86.8798 68.171C86.1198 55.7166 89.0984 53.2912 91.9785 50.9472C92.1192 50.8323 92.2273 50.6955 92.3135 50.5481L101.297 59.281L91.0443 59.0896C90.9907 61.9486 93.2744 64.3099 96.1449 64.3635V64.3644ZM66.9492 143.541C36.3168 129.38 18.0736 99.5031 18.0736 63.347V33.6478L38.1287 28.8889C44.9942 30.607 51.3966 35.0022 56.4436 41.0379C39.081 45.748 26.2572 61.0575 24.6205 79.7467L24.5793 80.2013L49.9647 124.993L50.8137 125.005C51.0003 125.007 51.1793 125.008 51.364 125.008C64.1132 125.008 72.3121 119.223 77.5735 112.117L77.7218 112.212L78.5191 110.975C78.5498 110.929 81.56 106.315 86.8214 102.751C93.7224 98.075 101.102 97.3131 108.748 100.477L108.949 100.561C100.848 119.469 86.3629 134.574 66.9492 143.541V143.541ZM66.9358 16L12.1614 28.998V63.347C12.1614 102.367 32.1934 134.561 65.7451 149.465L66.9492 150L68.1533 149.465C102.016 134.422 122.232 102.23 122.232 63.3001L121.686 28.9894L66.9348 16H66.9358Z" fill="#943330"/>
<path d="M169.008 98.7812C166.117 98.7812 163.513 98.0651 161.195 96.6328C158.852 95.2005 156.964 93.2734 155.531 90.8516C154.125 88.4297 153.422 85.7214 153.422 82.7266V57.375C153.422 54.4583 154.138 51.8021 155.57 49.4062C156.977 46.9844 158.865 45.0573 161.234 43.625C163.604 42.1667 166.195 41.4375 169.008 41.4375C171.951 41.4375 174.607 42.1406 176.977 43.5469C179.346 44.9792 181.221 46.8932 182.602 49.2891C184.008 51.6849 184.711 54.3802 184.711 57.375V61.0469C184.711 61.2552 184.581 61.3594 184.32 61.3594H175.336C175.128 61.3594 175.023 61.2552 175.023 61.0469V58C175.023 55.9688 174.451 54.2891 173.305 52.9609C172.159 51.6328 170.727 50.9688 169.008 50.9688C167.471 50.9688 166.104 51.6068 164.906 52.8828C163.708 54.1589 163.109 55.6562 163.109 57.375V82.7266C163.109 84.4714 163.695 85.9818 164.867 87.2578C166.039 88.5078 167.419 89.1328 169.008 89.1328C170.727 89.1328 172.159 88.5208 173.305 87.2969C174.451 86.0469 175.023 84.5234 175.023 82.7266V78.7812H169.438C169.151 78.7812 169.008 78.651 169.008 78.3906V69.4453C169.008 69.1849 169.151 69.0547 169.438 69.0547H184.398C184.607 69.0547 184.711 69.1849 184.711 69.4453V82.7266C184.711 85.7214 184.008 88.4297 182.602 90.8516C181.169 93.2734 179.281 95.2005 176.938 96.6328C174.594 98.0651 171.951 98.7812 169.008 98.7812ZM199.75 98H190.688C190.479 98 190.375 97.8698 190.375 97.6094L190.531 42.6484C190.531 42.4401 190.635 42.3359 190.844 42.3359H207.016C209.906 42.3359 212.562 43.0391 214.984 44.4453C217.406 45.8516 219.333 47.7396 220.766 50.1094C222.224 52.4792 222.953 55.1615 222.953 58.1562C222.953 60.1094 222.654 61.8802 222.055 63.4688C221.456 65.0573 220.753 66.3984 219.945 67.4922C219.164 68.5859 218.448 69.3932 217.797 69.9141C220.688 73.1172 222.133 76.8802 222.133 81.2031L222.211 97.6094C222.211 97.8698 222.081 98 221.82 98H212.758C212.549 98 212.445 97.9219 212.445 97.7656V81.2031C212.445 79.276 211.768 77.6094 210.414 76.2031C209.06 74.7969 207.393 74.0938 205.414 74.0938H200.141L200.062 97.6094C200.062 97.8698 199.958 98 199.75 98ZM207.016 51.9062H200.141V64.4844H207.016C208.656 64.4844 210.115 63.8724 211.391 62.6484C212.693 61.4245 213.344 59.9271 213.344 58.1562C213.344 56.4635 212.719 55.0052 211.469 53.7812C210.219 52.5312 208.734 51.9062 207.016 51.9062ZM238.422 98H229.359C229.099 98 228.969 97.8698 228.969 97.6094L229.047 42.6484C229.047 42.4401 229.151 42.3359 229.359 42.3359H238.344C238.552 42.3359 238.656 42.4401 238.656 42.6484L238.734 97.6094C238.734 97.8698 238.63 98 238.422 98ZM255.141 98H246.156C245.896 98 245.766 97.8698 245.766 97.6094L245.922 42.6484C245.922 42.4401 246.026 42.3359 246.234 42.3359H271.859C272.12 42.3359 272.25 42.4401 272.25 42.6484V51.6719C272.25 51.8802 272.146 51.9844 271.938 51.9844H255.531V64.4062H271.938C272.146 64.4062 272.25 64.5365 272.25 64.7969L272.328 73.8594C272.328 74.0677 272.198 74.1719 271.938 74.1719H255.531V97.6094C255.531 97.8698 255.401 98 255.141 98ZM288.812 98H279.828C279.568 98 279.438 97.8698 279.438 97.6094L279.594 42.6484C279.594 42.4401 279.698 42.3359 279.906 42.3359H305.531C305.792 42.3359 305.922 42.4401 305.922 42.6484V51.6719C305.922 51.8802 305.818 51.9844 305.609 51.9844H289.203V64.4062H305.609C305.818 64.4062 305.922 64.5365 305.922 64.7969L306 73.8594C306 74.0677 305.87 74.1719 305.609 74.1719H289.203V97.6094C289.203 97.8698 289.073 98 288.812 98ZM322.562 98H313.5C313.24 98 313.109 97.8698 313.109 97.6094L313.188 42.6484C313.188 42.4401 313.292 42.3359 313.5 42.3359H322.484C322.693 42.3359 322.797 42.4401 322.797 42.6484L322.875 97.6094C322.875 97.8698 322.771 98 322.562 98ZM338.617 98H330.609C330.193 98 329.984 97.8177 329.984 97.4531L329.906 42.9609C329.906 42.5443 330.115 42.3359 330.531 42.3359H337.758L351.273 73.8594L350.883 42.9609C350.883 42.5443 351.117 42.3359 351.586 42.3359H359.516C359.828 42.3359 359.984 42.5443 359.984 42.9609L360.062 97.5312C360.062 97.8438 359.932 98 359.672 98H352.641L338.773 68.5469L339.359 97.375C339.359 97.7917 339.112 98 338.617 98ZM397.172 98H388.188C387.927 98 387.797 97.8698 387.797 97.6094L387.953 42.6484C387.953 42.4401 388.057 42.3359 388.266 42.3359H403.656C408.552 42.3359 412.419 43.8333 415.258 46.8281C418.122 49.7969 419.555 53.8464 419.555 58.9766C419.555 62.7266 418.812 65.9948 417.328 68.7812C415.818 71.5417 413.865 73.6771 411.469 75.1875C409.073 76.6979 406.469 77.4531 403.656 77.4531H397.562V97.6094C397.562 97.8698 397.432 98 397.172 98ZM403.656 51.8281L397.562 51.9062V67.7656H403.656C405.349 67.7656 406.82 66.9583 408.07 65.3438C409.32 63.7031 409.945 61.5807 409.945 58.9766C409.945 56.8932 409.385 55.1875 408.266 53.8594C407.146 52.5052 405.609 51.8281 403.656 51.8281ZM421.664 97.6094L431.586 42.6484C431.638 42.4401 431.768 42.3359 431.977 42.3359H443.578C443.786 42.3359 443.917 42.4401 443.969 42.6484L453.5 97.6094C453.526 97.8698 453.422 98 453.188 98H444.32C444.06 98 443.917 97.8698 443.891 97.6094L443.031 91.75H432.133L431.273 97.6094C431.247 97.8698 431.117 98 430.883 98H421.977C421.768 98 421.664 97.8698 421.664 97.6094ZM437.328 60.7344L433.734 83.1953H441.43L438.148 60.7344L437.68 57.7656L437.328 60.7344ZM473.539 98H464.359C464.177 98 464.086 97.8958 464.086 97.6875L464.164 74.9531L453.461 42.6484C453.409 42.4401 453.487 42.3359 453.695 42.3359H462.602C462.862 42.3359 463.018 42.4401 463.07 42.6484L468.969 64.1719L474.984 42.6484C475.036 42.4401 475.167 42.3359 475.375 42.3359H484.359C484.568 42.3359 484.646 42.4401 484.594 42.6484L473.773 74.6406L473.852 97.6875C473.852 97.8958 473.747 98 473.539 98Z" fill="black"/>
</svg>
